<?xml version="1.0" encoding="utf-8"?>
<svg version="1.1" xmlns="http://www.w3.org/2000/svg" xmlns:xlink="http://www.w3.org/1999/xlink" width="400" height="45" viewBox="50 230 400 45">
  <g data-paper-data="{&quot;description&quot;:&quot;Logo for Guaranteed Clothes\n===========================\n\nThis logo was generated by MarkMaker at http://emblemmatic.org/markmaker/ and may be composed of elements designed by others.\n\nThe font is Encode Sans Compressed SemiBold designed by Impallari Type and released under the OFL license via Google Fonts: https://www.google.com/fonts/specimen/Encode%20Sans%20Compressed. The font includes this copyright statement: Copyright (c) 2012, Impallari Type (www.impallari.com), with Reserved Font Name Encode Sans.\n\nMarkMaker uses semantic data from the Princeton University WordNet database http://wordnet.princeton.edu and font descriptions from Google Fonts https://www.google.com/fonts.&quot;}" fill="none" fill-rule="nonzero" stroke="none" stroke-width="1" stroke-linecap="butt" stroke-linejoin="miter" stroke-miterlimit="10" stroke-dasharray="" stroke-dashoffset="0" font-family="none" font-weight="none" font-size="none" text-anchor="none" style="mix-blend-mode: normal">
    <g data-paper-data="{&quot;elementType&quot;:&quot;logo&quot;}">
      <g data-paper-data="{&quot;elementType&quot;:&quot;text&quot;}">
        <g data-paper-data="{&quot;baseline&quot;:80.80000000000001,&quot;elementType&quot;:&quot;row&quot;}">
          <g data-paper-data="{&quot;baselineProportion&quot;:0.9877750611246944,&quot;fontSize&quot;:100,&quot;baseline&quot;:80.80000000000001,&quot;elementType&quot;:&quot;word&quot;}" fill="#010202">
            <path d="M65.80516,271.19446c-5.45839,-0.03455 -9.45718,-1.64097 -11.99637,-4.81928c-2.53919,-3.1783 -3.80878,-8.1185 -3.80878,-14.82057c0,-3.38559 0.33683,-6.31343 1.01049,-8.78352c0.67366,-2.4701 1.71007,-4.50836 3.10921,-6.11478c1.39914,-1.60643 3.16103,-2.79829 5.28566,-3.57559c2.12463,-0.7773 4.65518,-1.16595 7.59166,-1.16595c1.1055,0 2.34918,0.07773 3.73105,0.23319c1.38187,0.15546 2.76374,0.38865 4.14561,0.69957v4.92292c-1.45097,-0.27637 -2.77238,-0.48366 -3.96424,-0.62184c-1.19186,-0.13819 -2.28872,-0.20728 -3.29058,-0.20728c-2.10735,0 -3.88651,0.25046 -5.33748,0.75139c-1.45097,0.50093 -2.62556,1.33005 -3.52377,2.48737c-0.89822,1.15732 -1.54597,2.66874 -1.94326,4.53427c-0.39729,1.86553 -0.59593,4.14561 -0.59593,6.84026c0,2.6601 0.18137,4.91428 0.54411,6.76253c0.36274,1.84825 0.95004,3.3424 1.76189,4.48245c0.81185,1.14004 1.87416,1.96917 3.18694,2.48737c1.31278,0.5182 2.90193,0.7773 4.76746,0.7773c0.96731,0 2.02099,-0.05182 3.16103,-0.15546v-14.71693h5.49294v19.17347c-2.03826,0.27637 -3.77424,0.48366 -5.20793,0.62184c-1.43369,0.13819 -2.80693,0.20728 -4.1197,0.20728z" data-paper-data="{&quot;elementType&quot;:&quot;letter&quot;,&quot;baseline&quot;:74.8,&quot;baselineProportion&quot;:0.9868073878627969,&quot;fontSize&quot;:100}"></path>
            <path d="M87.20689,271.19446c-2.24554,0 -3.95561,-0.62184 -5.1302,-1.86553c-1.17459,-1.24368 -1.76189,-3.09194 -1.76189,-5.54476v-21.09081h5.9075v19.32893c0,1.48551 0.23319,2.52192 0.69957,3.10921c0.46638,0.5873 1.26959,0.88094 2.40964,0.88094c0.89822,0 1.77052,-0.1641 2.61692,-0.49229c0.8464,-0.32819 1.87416,-0.9414 3.0833,-1.83962v-20.98717h5.9075v27.9829h-4.97474l-0.41456,-2.90193h-0.20728c-0.93276,0.62184 -1.77052,1.15732 -2.51328,1.60643c-0.74276,0.44911 -1.43369,0.80321 -2.07281,1.06231c-0.63912,0.2591 -1.24368,0.44911 -1.81371,0.57002c-0.57002,0.12091 -1.14868,0.18137 -1.73598,0.18137z" data-paper-data="{&quot;elementType&quot;:&quot;letter&quot;,&quot;baseline&quot;:54,&quot;baselineProportion&quot;:0.9818181818181818,&quot;fontSize&quot;:100}"></path>
            <path d="M112.18422,270.93535c-2.17645,0 -3.91242,-0.69957 -5.20793,-2.09872c-1.2955,-1.39914 -1.94326,-3.29058 -1.94326,-5.67431c0,-5.28566 3.28194,-8.15304 9.84583,-8.60215l4.8711,-0.36274v-1.65825c0,-1.1055 -0.08637,-2.02962 -0.2591,-2.77238c-0.17273,-0.74276 -0.45774,-1.33005 -0.85503,-1.76189c-0.39729,-0.43183 -0.92413,-0.74276 -1.58052,-0.93276c-0.65639,-0.19001 -1.46824,-0.28501 -2.43555,-0.28501c-0.41456,0 -0.92413,0.02591 -1.5287,0.07773c-0.60457,0.05182 -1.23505,0.11228 -1.89144,0.18137c-0.65639,0.06909 -1.30414,0.15546 -1.94326,0.2591c-0.63912,0.10364 -1.2005,0.20728 -1.68416,0.31092l-0.41456,-4.45654c1.41642,-0.27637 2.85875,-0.49229 4.32699,-0.64775c1.46824,-0.15546 2.8242,-0.23319 4.06788,-0.23319c3.52377,0 6.08023,0.70821 7.66939,2.12463c1.58915,1.41642 2.38373,3.64469 2.38373,6.6848v19.58803h-4.8711l-0.46638,-3.36831h-0.41456c-0.96731,0.96731 -2.10735,1.81371 -3.42013,2.53919c-1.31278,0.72548 -2.7292,1.08822 -4.24926,1.08822M114.30885,266.47882c0.44911,0 0.92413,-0.08637 1.42506,-0.2591c0.50093,-0.17273 0.98458,-0.38001 1.45097,-0.62184c0.46638,-0.24183 0.92413,-0.50957 1.37323,-0.80321c0.44911,-0.29365 0.8464,-0.56139 1.19186,-0.80321v-6.01114l-3.57559,0.31092c-1.90007,0.17273 -3.2474,0.60457 -4.04197,1.2955c-0.79458,0.69094 -1.19186,1.71007 -1.19186,3.05739c0,1.20914 0.28501,2.15054 0.85503,2.8242c0.57002,0.67366 1.40778,1.01049 2.51328,1.01049z" data-paper-data="{&quot;elementType&quot;:&quot;letter&quot;,&quot;baseline&quot;:54.800000000000004,&quot;baselineProportion&quot;:0.9909584086799277,&quot;fontSize&quot;:100}"></path>
            <path d="M131.20223,242.69335h5.02656l0.36274,3.67923h0.31092c0.24183,-0.24183 0.62184,-0.55275 1.14004,-0.93276c0.5182,-0.38001 1.12277,-0.76867 1.81371,-1.16595c0.69094,-0.39729 1.42506,-0.7773 2.20236,-1.14004c0.7773,-0.36274 1.5287,-0.66503 2.25418,-0.90685h1.19186v5.80386h-2.33191c-1.20914,0.17273 -2.37509,0.49229 -3.49786,0.95867c-1.12277,0.46638 -1.9778,0.97595 -2.5651,1.5287v20.15805h-5.9075z" data-paper-data="{&quot;elementType&quot;:&quot;letter&quot;,&quot;baseline&quot;:54.900000000000006,&quot;baselineProportion&quot;:1,&quot;fontSize&quot;:100}"></path>
            <path d="M154.46949,270.93535c-2.17645,0 -3.91242,-0.69957 -5.20793,-2.09872c-1.2955,-1.39914 -1.94326,-3.29058 -1.94326,-5.67431c0,-5.28566 3.28194,-8.15304 9.84583,-8.60215l4.8711,-0.36274v-1.65825c0,-1.1055 -0.08637,-2.02962 -0.2591,-2.77238c-0.17273,-0.74276 -0.45774,-1.33005 -0.85503,-1.76189c-0.39729,-0.43183 -0.92413,-0.74276 -1.58052,-0.93276c-0.65639,-0.19001 -1.46824,-0.28501 -2.43555,-0.28501c-0.41456,0 -0.92413,0.02591 -1.5287,0.07773c-0.60457,0.05182 -1.23505,0.11228 -1.89144,0.18137c-0.65639,0.06909 -1.30414,0.15546 -1.94326,0.2591c-0.63912,0.10364 -1.2005,0.20728 -1.68416,0.31092l-0.41456,-4.45654c1.41642,-0.27637 2.85875,-0.49229 4.32699,-0.64775c1.46824,-0.15546 2.8242,-0.23319 4.06788,-0.23319c3.52377,0 6.08023,0.70821 7.66939,2.12463c1.58915,1.41642 2.38373,3.64469 2.38373,6.6848v19.58803h-4.8711l-0.46638,-3.36831h-0.41456c-0.96731,0.96731 -2.10735,1.81371 -3.42013,2.53919c-1.31278,0.72548 -2.7292,1.08822 -4.24926,1.08822M156.59412,266.47882c0.44911,0 0.92413,-0.08637 1.42506,-0.2591c0.50093,-0.17273 0.98458,-0.38001 1.45097,-0.62184c0.46638,-0.24183 0.92413,-0.50957 1.37323,-0.80321c0.44911,-0.29365 0.8464,-0.56139 1.19186,-0.80321v-6.01114l-3.57559,0.31092c-1.90007,0.17273 -3.2474,0.60457 -4.04197,1.2955c-0.79458,0.69094 -1.19186,1.71007 -1.19186,3.05739c0,1.20914 0.28501,2.15054 0.85503,2.8242c0.57002,0.67366 1.40778,1.01049 2.51328,1.01049z" data-paper-data="{&quot;elementType&quot;:&quot;letter&quot;,&quot;baseline&quot;:54.800000000000004,&quot;baselineProportion&quot;:0.9909584086799277,&quot;fontSize&quot;:100}"></path>
            <path d="M173.4875,242.69335h5.02656l0.36274,3.00557h0.20728c0.96731,-0.65639 1.84825,-1.20914 2.64283,-1.65825c0.79458,-0.44911 1.53733,-0.81185 2.22827,-1.08822c0.69094,-0.27637 1.3646,-0.47502 2.02099,-0.59593c0.65639,-0.12091 1.33005,-0.18137 2.02099,-0.18137c4.07652,0 6.11478,2.4701 6.11478,7.41029v21.09081h-5.85568v-19.22529c0,-1.48551 -0.25046,-2.53055 -0.75139,-3.13512c-0.50093,-0.60457 -1.23505,-0.90685 -2.20236,-0.90685c-0.89822,0 -1.83962,0.19864 -2.8242,0.59593c-0.98458,0.39729 -2.01235,0.9414 -3.0833,1.63234v21.03899h-5.9075z" data-paper-data="{&quot;elementType&quot;:&quot;letter&quot;,&quot;baseline&quot;:55,&quot;baselineProportion&quot;:1,&quot;fontSize&quot;:100}"></path>
            <path d="M210.02073,270.98717c-2.6601,0 -4.66382,-0.65639 -6.01114,-1.96917c-1.34732,-1.31278 -2.02099,-3.23012 -2.02099,-5.75204v-15.54606h-4.56018v-5.02656h4.92292l0.7773,-7.46211l4.71564,-0.67366v8.13577h6.32206v5.02656h-6.27024v14.19873c0,1.58915 0.30228,2.73783 0.90685,3.44604c0.60457,0.70821 1.49415,1.06231 2.66874,1.06231c0.38001,0 0.80321,-0.02591 1.26959,-0.07773c0.46638,-0.05182 0.92413,-0.14682 1.37323,-0.28501v4.45654c-0.69094,0.13819 -1.37323,0.25046 -2.0469,0.33683c-0.67366,0.08637 -1.35596,0.12955 -2.0469,0.12955z" data-paper-data="{&quot;elementType&quot;:&quot;letter&quot;,&quot;baseline&quot;:69.7,&quot;baselineProportion&quot;:0.9914651493598863,&quot;fontSize&quot;:100}"></path>
            <path d="M228.36507,271.14264c-3.80015,0 -6.69344,-1.2005 -8.67988,-3.6015c-1.98644,-2.401 -2.97966,-5.88159 -2.97966,-10.44177c0,-4.90564 0.97595,-8.61079 2.92784,-11.11543c1.95189,-2.50464 4.82791,-3.75696 8.62806,-3.75696c6.28752,0 9.43127,4.21471 9.43127,12.64412c0,0.93276 -0.01727,1.67552 -0.05182,2.22827c-0.03455,0.55275 -0.08637,1.12277 -0.15546,1.71007h-14.76875c0.17273,2.79829 0.72548,4.78473 1.65825,5.95932c0.93276,1.17459 2.38373,1.76189 4.3529,1.76189c2.07281,0 4.64654,-0.50093 7.72121,-1.50279l0.2591,4.50836c-1.14004,0.48366 -2.46146,0.87231 -3.96424,1.16595c-1.50279,0.29365 -2.96239,0.44047 -4.37881,0.44047M228.10597,246.73533c-1.65825,0 -2.92784,0.64775 -3.80878,1.94326c-0.88094,1.2955 -1.40778,3.32513 -1.58052,6.08887h9.69037c-0.06909,-2.86738 -0.44047,-4.92292 -1.11413,-6.1666c-0.67366,-1.24368 -1.73598,-1.86553 -3.18694,-1.86553z" data-paper-data="{&quot;elementType&quot;:&quot;letter&quot;,&quot;baseline&quot;:54.900000000000006,&quot;baselineProportion&quot;:0.9838709677419354,&quot;fontSize&quot;:100}"></path>
            <path d="M252.72056,271.14264c-3.80015,0 -6.69344,-1.2005 -8.67988,-3.6015c-1.98644,-2.401 -2.97966,-5.88159 -2.97966,-10.44177c0,-4.90564 0.97595,-8.61079 2.92784,-11.11543c1.95189,-2.50464 4.82791,-3.75696 8.62806,-3.75696c6.28752,0 9.43127,4.21471 9.43127,12.64412c0,0.93276 -0.01727,1.67552 -0.05182,2.22827c-0.03455,0.55275 -0.08637,1.12277 -0.15546,1.71007h-14.76875c0.17273,2.79829 0.72548,4.78473 1.65825,5.95932c0.93276,1.17459 2.38373,1.76189 4.3529,1.76189c2.07281,0 4.64654,-0.50093 7.72121,-1.50279l0.2591,4.50836c-1.14004,0.48366 -2.46146,0.87231 -3.96424,1.16595c-1.50279,0.29365 -2.96239,0.44047 -4.37881,0.44047M252.46146,246.73533c-1.65825,0 -2.92784,0.64775 -3.80878,1.94326c-0.88094,1.2955 -1.40778,3.32513 -1.58052,6.08887h9.69037c-0.06909,-2.86738 -0.44047,-4.92292 -1.11413,-6.1666c-0.67366,-1.24368 -1.73598,-1.86553 -3.18694,-1.86553z" data-paper-data="{&quot;elementType&quot;:&quot;letter&quot;,&quot;baseline&quot;:54.900000000000006,&quot;baselineProportion&quot;:0.9838709677419354,&quot;fontSize&quot;:100}"></path>
            <path d="M274.48504,271.14264c-6.01114,0 -9.01671,-4.62927 -9.01671,-13.88781c0,-4.94019 1.05368,-8.67988 3.16103,-11.21907c2.10735,-2.53919 5.19929,-3.80878 9.27581,-3.80878c0.48366,0 0.99322,0.02591 1.5287,0.07773c0.53548,0.05182 1.2005,0.12955 1.99508,0.23319v-13.73235h5.85568v41.87071h-5.33748l-0.41456,-2.79829h-0.15546c-1.65825,2.17645 -3.95561,3.26467 -6.89208,3.26467M276.40238,266.78974c1.41642,0 2.60828,-0.57866 3.57559,-1.73598c0.96731,-1.15732 1.45097,-3.06603 1.45097,-5.72613v-12.38502c-0.69094,-0.20728 -1.32141,-0.3541 -1.89144,-0.44047c-0.57002,-0.08637 -1.16595,-0.12955 -1.7878,-0.12955c-2.17645,0 -3.7656,0.7773 -4.76746,2.33191c-1.00186,1.55461 -1.50279,4.18016 -1.50279,7.87667c0,3.62741 0.39729,6.2357 1.19186,7.82485c0.79458,1.58915 2.03826,2.38373 3.73105,2.38373z" data-paper-data="{&quot;elementType&quot;:&quot;letter&quot;,&quot;baseline&quot;:80.80000000000001,&quot;baselineProportion&quot;:0.9889840881272949,&quot;fontSize&quot;:100}"></path>
          </g>
          <g data-paper-data="{&quot;baselineProportion&quot;:0.9877750611246944,&quot;fontSize&quot;:100,&quot;baseline&quot;:80.80000000000001,&quot;elementType&quot;:&quot;word&quot;}" fill="#050606">
            <path d="M316.04482,271.19446c-5.3893,-0.03455 -9.37082,-1.6237 -11.94455,-4.76746c-2.57374,-3.14376 -3.8606,-8.10122 -3.8606,-14.87239c0,-3.45468 0.31092,-6.4257 0.93276,-8.91307c0.62184,-2.48737 1.58052,-4.52563 2.87602,-6.11478c1.2955,-1.58915 2.92784,-2.75511 4.89701,-3.49786c1.96917,-0.74276 4.30108,-1.11413 6.99572,-1.11413c2.00371,0 4.19743,0.20728 6.58116,0.62184v4.92292c-0.86367,-0.17273 -1.79643,-0.30228 -2.79829,-0.38865c-1.00186,-0.08637 -1.95189,-0.12955 -2.85011,-0.12955c-1.90007,0 -3.51514,0.23319 -4.84519,0.69957c-1.33005,0.46638 -2.40964,1.26096 -3.23876,2.38373c-0.82912,1.12277 -1.42506,2.62556 -1.7878,4.50836c-0.36274,1.8828 -0.54411,4.22334 -0.54411,7.02163c0,2.7292 0.19001,5.01792 0.57002,6.86617c0.38001,1.84825 0.98458,3.3424 1.81371,4.48245c0.82912,1.14004 1.89144,1.95189 3.18694,2.43555c1.2955,0.48366 2.85875,0.72548 4.68973,0.72548c0.79458,0 1.7187,-0.04318 2.77238,-0.12955c1.05368,-0.08637 2.06417,-0.21592 3.03148,-0.38865v4.76746c-0.79458,0.27637 -1.74461,0.49229 -2.85011,0.64775c-1.1055,0.15546 -2.31463,0.23319 -3.62741,0.23319z" data-paper-data="{&quot;elementType&quot;:&quot;letter&quot;,&quot;baseline&quot;:74.8,&quot;baselineProportion&quot;:0.9868073878627969,&quot;fontSize&quot;:100}"></path>
            <path d="M326.92706,228.80554h5.9075v41.87071h-5.9075z" data-paper-data="{&quot;elementType&quot;:&quot;letter&quot;,&quot;baseline&quot;:80.80000000000001,&quot;baselineProportion&quot;:1,&quot;fontSize&quot;:100}"></path>
            <path d="M348.89882,271.19446c-3.7656,0 -6.61571,-1.22641 -8.55033,-3.67923c-1.93462,-2.45282 -2.90193,-6.06296 -2.90193,-10.83042c0,-4.76746 0.96731,-8.3776 2.90193,-10.83042c1.93462,-2.45282 4.78473,-3.67923 8.55033,-3.67923c3.7656,0 6.61571,1.22641 8.55033,3.67923c1.93462,2.45282 2.90193,6.06296 2.90193,10.83042c0,4.76746 -0.96731,8.3776 -2.90193,10.83042c-1.93462,2.45282 -4.78473,3.67923 -8.55033,3.67923M348.89882,266.53064c1.00186,0 1.85689,-0.17273 2.5651,-0.5182c0.70821,-0.34547 1.27823,-0.90685 1.71007,-1.68416c0.43183,-0.7773 0.75139,-1.7878 0.95867,-3.03148c0.20728,-1.24368 0.31092,-2.78102 0.31092,-4.612c0,-1.83098 -0.10364,-3.36831 -0.31092,-4.612c-0.20728,-1.24368 -0.52684,-2.25418 -0.95867,-3.03148c-0.43183,-0.7773 -1.00186,-1.33869 -1.71007,-1.68416c-0.70821,-0.34547 -1.56324,-0.5182 -2.5651,-0.5182c-1.00186,0 -1.84825,0.17273 -2.53919,0.5182c-0.69094,0.34547 -1.26096,0.90685 -1.71007,1.68416c-0.44911,0.7773 -0.76867,1.7878 -0.95867,3.03148c-0.19001,1.24368 -0.28501,2.78102 -0.28501,4.612c0,1.83098 0.095,3.36831 0.28501,4.612c0.19001,1.24368 0.50957,2.25418 0.95867,3.03148c0.44911,0.7773 1.01913,1.33869 1.71007,1.68416c0.69094,0.34547 1.53733,0.5182 2.53919,0.5182z" data-paper-data="{&quot;elementType&quot;:&quot;letter&quot;,&quot;baseline&quot;:55,&quot;baselineProportion&quot;:0.9821428571428571,&quot;fontSize&quot;:100}"></path>
            <path d="M375.27529,270.98717c-2.6601,0 -4.66382,-0.65639 -6.01114,-1.96917c-1.34732,-1.31278 -2.02099,-3.23012 -2.02099,-5.75204v-15.54606h-4.56018v-5.02656h4.92292l0.7773,-7.46211l4.71564,-0.67366v8.13577h6.32206v5.02656h-6.27024v14.19873c0,1.58915 0.30228,2.73783 0.90685,3.44604c0.60457,0.70821 1.49415,1.06231 2.66874,1.06231c0.38001,0 0.80321,-0.02591 1.26959,-0.07773c0.46638,-0.05182 0.92413,-0.14682 1.37323,-0.28501v4.45654c-0.69094,0.13819 -1.37323,0.25046 -2.0469,0.33683c-0.67366,0.08637 -1.35596,0.12955 -2.0469,0.12955z" data-paper-data="{&quot;elementType&quot;:&quot;letter&quot;,&quot;baseline&quot;:69.7,&quot;baselineProportion&quot;:0.9914651493598863,&quot;fontSize&quot;:100}"></path>
            <path d="M383.10014,228.80554h5.9075v16.6861c1.83098,-1.20914 3.39422,-2.06417 4.68973,-2.5651c1.2955,-0.50093 2.59965,-0.75139 3.91242,-0.75139c4.07652,0 6.11478,2.4701 6.11478,7.41029v21.09081h-5.85568v-19.22529c0,-1.45097 -0.24183,-2.48737 -0.72548,-3.10921c-0.48366,-0.62184 -1.22641,-0.93276 -2.22827,-0.93276c-1.72734,0 -3.69651,0.74276 -5.9075,2.22827v21.03899h-5.9075z" data-paper-data="{&quot;elementType&quot;:&quot;letter&quot;,&quot;baseline&quot;:80.80000000000001,&quot;baselineProportion&quot;:1,&quot;fontSize&quot;:100}"></path>
            <path d="M419.84065,271.14264c-3.80015,0 -6.69344,-1.2005 -8.67988,-3.6015c-1.98644,-2.401 -2.97966,-5.88159 -2.97966,-10.44177c0,-4.90564 0.97595,-8.61079 2.92784,-11.11543c1.95189,-2.50464 4.82791,-3.75696 8.62806,-3.75696c6.28752,0 9.43127,4.21471 9.43127,12.64412c0,0.93276 -0.01727,1.67552 -0.05182,2.22827c-0.03455,0.55275 -0.08637,1.12277 -0.15546,1.71007h-14.76875c0.17273,2.79829 0.72548,4.78473 1.65825,5.95932c0.93276,1.17459 2.38373,1.76189 4.3529,1.76189c2.07281,0 4.64654,-0.50093 7.72121,-1.50279l0.2591,4.50836c-1.14004,0.48366 -2.46146,0.87231 -3.96424,1.16595c-1.50279,0.29365 -2.96239,0.44047 -4.37881,0.44047M419.58155,246.73533c-1.65825,0 -2.92784,0.64775 -3.80878,1.94326c-0.88094,1.2955 -1.40778,3.32513 -1.58052,6.08887h9.69037c-0.06909,-2.86738 -0.44047,-4.92292 -1.11413,-6.1666c-0.67366,-1.24368 -1.73598,-1.86553 -3.18694,-1.86553z" data-paper-data="{&quot;elementType&quot;:&quot;letter&quot;,&quot;baseline&quot;:54.900000000000006,&quot;baselineProportion&quot;:0.9838709677419354,&quot;fontSize&quot;:100}"></path>
            <path d="M440.30963,271.19446c-1.17459,0 -2.38373,-0.10364 -3.62741,-0.31092c-1.24368,-0.20728 -2.59101,-0.5182 -4.04197,-0.93276v-4.50836c1.1055,0.38001 2.32327,0.69094 3.65332,0.93276c1.33005,0.24183 2.59965,0.36274 3.80878,0.36274c1.38187,0 2.43555,-0.32819 3.16103,-0.98458c0.72548,-0.65639 1.08822,-1.57188 1.08822,-2.74647c0,-1.07095 -0.30228,-1.92598 -0.90685,-2.5651c-0.60457,-0.63912 -1.56324,-1.09686 -2.87602,-1.37323c-0.82912,-0.17273 -1.70143,-0.37138 -2.61692,-0.59593c-0.91549,-0.22455 -1.75325,-0.62184 -2.51328,-1.19186c-0.76003,-0.57002 -1.39051,-1.38187 -1.89144,-2.43555c-0.50093,-1.05368 -0.75139,-2.46146 -0.75139,-4.22334c0,-2.69465 0.7773,-4.78473 2.33191,-6.27024c1.55461,-1.48551 3.73105,-2.22827 6.52934,-2.22827c1.07095,0 2.17645,0.07773 3.31649,0.23319c1.14004,0.15546 2.401,0.38865 3.78287,0.69957v4.50836c-1.48551,-0.34547 -2.64283,-0.57866 -3.47195,-0.69957c-0.82912,-0.12091 -1.64097,-0.18137 -2.43555,-0.18137c-1.45097,0 -2.57374,0.32819 -3.36831,0.98458c-0.79458,0.65639 -1.19186,1.55461 -1.19186,2.69465c0,1.31278 0.37138,2.21963 1.11413,2.72056c0.74276,0.50093 1.66688,0.88958 2.77238,1.16595c1.00186,0.24183 1.96917,0.52684 2.90193,0.85503c0.93276,0.32819 1.76189,0.79458 2.48737,1.39914c0.72548,0.60457 1.31278,1.39914 1.76189,2.38373c0.44911,0.98458 0.67366,2.2369 0.67366,3.75696c0,2.6601 -0.85503,4.75018 -2.5651,6.27024c-1.71007,1.52006 -4.08516,2.28009 -7.12528,2.28009z" data-paper-data="{&quot;elementType&quot;:&quot;letter&quot;,&quot;baseline&quot;:55.1,&quot;baselineProportion&quot;:0.982174688057041,&quot;fontSize&quot;:100}"></path>
          </g>
        </g>
      </g>
    </g>
  </g>
</svg>